<svg width="44" height="44" viewBox="0 0 44 44" fill="none" xmlns="http://www.w3.org/2000/svg">
<path d="M33 23.8298H23.8333V32.9964C23.8333 33.4826 23.6401 33.949 23.2963 34.2928C22.9525 34.6366 22.4862 34.8297 22 34.8297C21.5137 34.8297 21.0474 34.6366 20.7036 34.2928C20.3598 33.949 20.1666 33.4826 20.1666 32.9964V23.8298H11C10.5137 23.8298 10.0474 23.6366 9.7036 23.2928C9.35978 22.949 9.16663 22.4826 9.16663 21.9964C9.16663 21.5102 9.35978 21.0439 9.7036 20.7001C10.0474 20.3562 10.5137 20.1631 11 20.1631H20.1666V10.9964C20.1666 10.5102 20.3598 10.0439 20.7036 9.70006C21.0474 9.35624 21.5137 9.16309 22 9.16309C22.4862 9.16309 22.9525 9.35624 23.2963 9.70006C23.6401 10.0439 23.8333 10.5102 23.8333 10.9964V20.1631H33C33.4862 20.1631 33.9525 20.3562 34.2963 20.7001C34.6401 21.0439 34.8333 21.5102 34.8333 21.9964C34.8333 22.4826 34.6401 22.949 34.2963 23.2928C33.9525 23.6366 33.4862 23.8298 33 23.8298Z" fill="white"/>
</svg>
